HIERARCHY
ROOT Hips
{
	OFFSET -3.958830 18.904000 13.208200
	CHANNELS 6 Xposition Yposition Zposition Zrotation Yrotation Xrotation 
	JOINT LHipJoint
	{
		OFFSET 0.000000 0.000000 0.000000
		CHANNELS 3 Zrotation Yrotation Xrotation
		JOINT LeftUpLeg
		{
			OFFSET 1.800000 -1.400000 0.085000
			CHANNELS 3 Zrotation Yrotation Xrotation
			JOINT LeftLeg
			{
				OFFSET 2.215000 -6.000000 0.000000
				CHANNELS 3 Zrotation Yrotation Xrotation
				JOINT LeftFoot
				{
					OFFSET 2.500000 -6.900000 0.000000
					CHANNELS 3 Zrotation Yrotation Xrotation
					JOINT LeftToeBase
					{
						OFFSET 0.200000 -0.500000 1.950000
						CHANNELS 3 Zrotation Yrotation Xrotation
						End Site
						{
							OFFSET 0.000000 0.000000 0.000000
						}
					}
				}
			}
		}
	}
	JOINT RHipJoint
	{
		OFFSET 0.000000 0.000000 0.000000
		CHANNELS 3 Zrotation Yrotation Xrotation
		JOINT RightUpLeg
		{
			OFFSET -1.800000 -1.400000 0.085000
			CHANNELS 3 Zrotation Yrotation Xrotation
			JOINT RightLeg
			{
				OFFSET -2.215000 -6.000000 0.000000
				CHANNELS 3 Zrotation Yrotation Xrotation
				JOINT RightFoot
				{
					OFFSET -2.500000 -6.900000 0.000000
					CHANNELS 3 Zrotation Yrotation Xrotation
					JOINT RightToeBase
					{
						OFFSET -0.200000 -0.500000 1.950000
						CHANNELS 3 Zrotation Yrotation Xrotation
						End Site
						{
							OFFSET 0.000000 0.000000 0.000000
						}
					}
				}
			}
		}
	}
	JOINT LowerBack
	{
		OFFSET 0.000000 0.000000 0.000000
		CHANNELS 3 Zrotation Yrotation Xrotation
		JOINT Spine
		{
			OFFSET -0.087000 1.940000 -0.288900
			CHANNELS 3 Zrotation Yrotation Xrotation
			JOINT Spine1
			{
				OFFSET 0.000000 1.950000 0.060000
				CHANNELS 3 Zrotation Yrotation Xrotation
				JOINT Neck
				{
					OFFSET 0.000000 0.000000 0.000000
					CHANNELS 3 Zrotation Yrotation Xrotation
					JOINT Neck1
					{
						OFFSET 0.000000 1.600000 0.340000
						CHANNELS 3 Zrotation Yrotation Xrotation
						JOINT Head
						{
							OFFSET 0.000000 1.667000 -0.240000
							CHANNELS 3 Zrotation Yrotation Xrotation
							End Site
							{
								OFFSET 0.000000 0.000000 0.000000
							}
						}
					}
				}
				JOINT LeftShoulder
				{
					OFFSET 0.000000 0.000000 0.000000
					CHANNELS 3 Zrotation Yrotation Xrotation
					JOINT LeftArm
					{
						OFFSET 2.700000 1.550000 -0.730000
						CHANNELS 3 Zrotation Yrotation Xrotation
						JOINT LeftForeArm
						{
							OFFSET 5.450000 0.000000 0.000000
							CHANNELS 3 Zrotation Yrotation Xrotation
							JOINT LeftHand
							{
								OFFSET 3.450000 0.000000 0.000000
								CHANNELS 3 Zrotation Yrotation Xrotation
								JOINT LeftHandIndex1
								{
									OFFSET 0.750000 0.000000 0.000000
									CHANNELS 3 Zrotation Yrotation Xrotation
									End Site
									{
										OFFSET 0.000000 0.000000 0.000000
									}
								}
							}
						}
					}
				}
				JOINT RightShoulder
				{
					OFFSET 0.000000 0.000000 0.000000
					CHANNELS 3 Zrotation Yrotation Xrotation
					JOINT RightArm
					{
						OFFSET -2.700000 1.550000 -0.730000
						CHANNELS 3 Zrotation Yrotation Xrotation
						JOINT RightForeArm
						{
							OFFSET -5.450000 0.000000 0.000000
							CHANNELS 3 Zrotation Yrotation Xrotation
							JOINT RightHand
							{
								OFFSET -3.450000 0.000000 0.000000
								CHANNELS 3 Zrotation Yrotation Xrotation
								JOINT RightHandIndex1
								{
									OFFSET -0.750000 0.000000 0.000000
									CHANNELS 3 Zrotation Yrotation Xrotation
									End Site
									{
										OFFSET 0.000000 0.000000 0.000000
									}
								}
							}
						}
					}
				}
			}
		}
	}
}
MOTION
Frames: 13
Frame Time: 0.016667
0.066510 16.760790 -2.291530 0.465310 -16.208924 0.644323 -15.125696 12.657077 2.960814 4.527886 -4.106774 -15.824335 -13.902238 12.174585 32.822114 -0.475135 8.165619 2.050336 0.485340 0.143200 0.025460 18.573891 -9.479665 3.670460 0.714468 6.816039 -42.015206 -0.743177 -4.198773 26.253089 -0.044496 -3.290197 3.472070 0.386180 0.948760 0.392930 -4.128908 -2.341849 -7.191417 14.998840 -6.917821 8.770125 -6.318517 -4.972976 13.690527 0.544859 -6.420147 -7.457381 -12.576316 10.024818 25.948673 -7.214260 7.443690 -6.842510 -17.563329 -0.724604 2.654828 -24.614837 3.167933 -1.150859 -154.138563 -62.603240 126.410721 -4.309079 3.267931 0.569270 0.746060 -0.410680 0.480980 16.403532 2.192756 4.305892 27.398617 -12.623431 -10.414101 42.591778 53.018810 15.012651 1.108846 -2.074311 -0.545950 0.568710 0.151760 -0.262950 
0.114810 16.654960 -2.305960 0.691193 -15.831335 -0.781263 -15.141727 12.648387 2.986951 4.331542 -4.364280 -15.262272 -13.791256 12.706697 34.855046 -0.383788 8.480172 1.913819 0.524230 0.167950 0.079760 18.572584 -9.297169 3.892410 -0.020417 7.379287 -44.810765 -2.422272 -4.738970 33.817014 -0.277774 -4.296660 3.084059 0.365020 0.854100 0.393750 -4.094172 -2.607640 -7.472482 14.611230 -7.637058 12.318410 -6.040824 -5.488165 12.138289 0.619938 -6.809595 -7.534303 -13.305685 10.386013 25.641507 -7.536840 7.624370 -9.386520 -19.381011 -1.922751 2.241068 -22.616373 3.580216 -2.592326 -141.280838 -63.861381 108.793222 -4.239379 3.216048 0.659270 0.656490 -0.330260 0.468220 18.101144 3.499402 4.724753 27.530860 -12.430927 -10.772194 46.869672 55.805410 17.927935 1.159986 -2.052064 -0.521780 0.548780 0.127600 -0.284860 
0.154960 16.559620 -2.314010 0.482169 -15.750409 -2.360382 -15.151689 12.571462 3.029831 4.903603 -4.724499 -14.909969 -14.248799 13.702089 37.326011 -0.219006 8.965022 1.720568 0.561770 0.200070 0.134040 18.583537 -9.098905 4.115905 -0.328779 8.177453 -46.889951 -4.403806 -5.085196 41.817934 -0.569956 -5.537624 2.637292 0.339400 0.742250 0.383090 -4.096025 -2.789231 -7.780771 14.813649 -8.459592 16.230352 -6.097379 -5.989925 10.254785 0.825297 -7.209615 -7.691462 -14.084454 10.641937 25.714463 -8.007620 7.744530 -11.655020 -20.950814 -3.028466 1.868900 -21.271155 3.432699 -3.784265 -123.069326 -65.084288 86.837962 -4.186946 3.157555 0.733580 0.555310 -0.246320 0.457320 19.298840 4.729060 5.129819 28.483793 -11.413704 -11.008706 51.634671 58.060659 21.131589 1.256366 -2.022884 -0.486030 0.512660 0.084960 -0.297970 
0.182960 16.474600 -2.313080 -0.021479 -15.949937 -3.804066 -15.185177 12.476504 3.070648 6.028747 -5.038500 -14.817978 -14.814166 15.075376 40.178578 -0.004774 9.608165 1.495865 0.529840 0.147700 0.162330 18.579334 -8.841097 4.355829 -0.412502 9.358450 -48.444758 -6.272165 -5.311599 50.070044 -0.881191 -6.920215 2.190114 0.269490 0.660690 0.349910 -4.049414 -2.999959 -8.097699 14.915859 -9.073013 19.711629 -5.892537 -6.328001 8.339900 1.234247 -7.152859 -8.077435 -14.145997 10.810624 26.781767 -8.856620 8.282400 -12.476750 -21.702639 -3.927588 2.031546 -21.444506 3.407319 -4.346013 -102.481788 -64.387671 64.239671 -4.141611 3.188546 0.786390 0.479580 -0.201760 0.423360 19.309569 5.716550 5.315659 30.690253 -9.049871 -11.073708 56.089823 59.193191 24.013703 1.384235 -1.941297 -0.478440 0.483790 0.071410 -0.319250 
0.202130 16.404380 -2.315600 -0.283057 -16.115228 -5.255050 -15.231778 12.404848 3.133947 7.118805 -5.288002 -14.838942 -15.550383 16.538694 42.699529 0.227278 10.252687 1.301876 0.467360 0.072350 0.147170 18.558926 -8.586200 4.535897 -0.890451 10.414450 -49.357187 -7.427450 -5.728547 57.760230 -1.194820 -8.265144 1.793529 0.194410 0.628700 0.309650 -3.960168 -3.265706 -8.382163 14.601398 -9.557265 22.686305 -5.556430 -6.677421 6.415955 1.531861 -7.110298 -8.502005 -14.457899 11.026933 28.611959 -9.124860 8.439100 -12.298670 -21.977313 -4.923751 2.273383 -22.372698 3.469405 -5.189188 -83.156232 -61.067946 45.624512 -3.994160 3.233971 0.816990 0.426930 -0.178410 0.405060 19.054350 6.885539 5.488792 33.434731 -6.033187 -10.900967 59.611028 60.221003 26.554690 1.514313 -1.836648 -0.484640 0.488400 0.074530 -0.318230 
0.210830 16.356860 -2.315020 -0.538735 -16.363237 -6.584159 -15.260441 12.351156 3.161376 8.164609 -5.279660 -14.593918 -16.126852 17.825691 44.571410 0.409697 10.763161 1.140871 0.428150 0.015630 0.144690 18.551122 -8.384968 4.679357 -1.347318 11.507479 -49.574567 -8.036014 -6.329801 64.741314 -1.506907 -9.489128 1.441755 0.133570 0.589690 0.281660 -3.919004 -3.449341 -8.590924 14.591077 -9.963453 24.630788 -5.508510 -6.998347 4.966257 1.763729 -7.111900 -8.999028 -14.992503 11.623165 30.993587 -9.025100 8.554200 -12.029760 -22.294211 -6.392876 2.639372 -23.537128 3.610404 -6.126161 -67.257222 -55.301924 30.932810 -3.860495 3.186961 0.848800 0.373670 -0.157360 0.380100 18.939246 8.478076 5.759806 36.277719 -2.909758 -10.597131 62.422609 60.974156 28.549218 1.630381 -1.743600 -0.480350 0.480770 0.082350 -0.322840 
0.211570 16.330430 -2.298420 -0.953261 -16.724330 -7.678354 -15.260973 12.331212 3.152081 9.288491 -4.912429 -13.954598 -16.632430 18.924374 45.635772 0.535701 11.130784 1.016232 0.396600 -0.026220 0.145200 18.559307 -8.284251 4.753194 -1.272073 12.609923 -48.589802 -8.437892 -6.863916 70.363304 -1.779462 -10.454567 1.181591 0.087300 0.549900 0.268330 -3.942394 -3.508281 -8.701097 15.332590 -10.254864 25.349017 -5.823919 -7.154202 4.274587 2.016934 -7.127216 -9.496153 -15.612841 12.192470 33.521458 -9.694440 8.731750 -11.963060 -22.915758 -7.881286 3.022542 -24.504657 3.614300 -6.507512 -53.984934 -48.023048 19.605526 -3.785032 3.083896 0.876210 0.335680 -0.132180 0.352680 19.021777 10.024869 6.147432 38.958419 -0.510354 -10.355991 65.997627 63.112556 31.650453 1.739781 -1.642704 -0.471600 0.473690 0.097470 -0.330980 
0.205690 16.326810 -2.279160 -1.077026 -17.272664 -8.857187 -15.244897 12.391358 3.128055 9.866725 -4.319907 -12.965768 -16.895007 19.661300 46.045452 0.626736 11.332673 0.962347 0.370830 -0.065240 0.128940 18.564702 -8.284633 4.744508 -1.226212 13.458501 -46.490615 -8.412975 -7.446400 74.586449 -1.994665 -11.156250 1.012111 0.047180 0.537980 0.248960 -3.976332 -3.553833 -8.732190 16.081266 -10.426526 25.773359 -6.167855 -7.236592 3.610181 2.066433 -7.644556 -10.286940 -17.499085 13.204672 35.838620 -9.214710 8.204490 -11.588930 -23.782372 -9.504216 3.663066 -25.724834 3.741502 -6.358576 -42.166150 -39.935999 11.132058 -3.724420 2.952014 0.903460 0.296900 -0.118870 0.341600 19.787001 12.091108 6.781922 40.937420 1.510649 -9.858875 71.595560 66.099140 36.582259 1.896804 -1.478187 -0.468560 0.491520 0.115920 -0.324330 
0.189380 16.331270 -2.254060 -0.583501 -17.889955 -9.772794 -15.228465 12.490016 3.050271 9.350864 -3.525661 -11.911865 -16.442513 19.757258 45.961998 0.639841 11.296290 0.980421 0.355590 -0.074540 0.119040 18.563997 -8.360471 4.729842 -1.573054 14.178662 -44.256253 -8.090623 -8.025325 77.982200 -2.166225 -11.723046 0.881585 0.036940 0.534320 0.235910 -3.994611 -3.519998 -8.715220 16.027316 -9.898539 25.370441 -6.458695 -6.995744 3.610542 2.086199 -7.662979 -10.626999 -17.983177 13.799274 37.461061 -9.371930 8.082000 -11.558760 -24.431803 -10.389728 4.052484 -26.461652 3.349182 -5.466490 -32.914828 -32.373495 5.967351 -3.717413 2.816372 0.912730 0.286630 -0.109730 0.333790 20.374161 13.213417 6.915638 43.040965 4.100522 -8.630118 78.311948 68.596291 42.399933 2.091219 -1.231118 -0.470590 0.513510 0.129160 -0.321240 
0.167890 16.360310 -2.223880 -0.258777 -18.203268 -10.312635 -15.207684 12.651463 3.010655 8.684849 -2.905624 -11.309724 -15.450052 19.514189 46.133432 0.633878 11.226981 1.014177 0.312840 -0.129550 0.101560 18.546793 -8.540106 4.603306 -1.590500 14.324908 -41.053126 -7.666833 -8.421125 79.468018 -2.242580 -11.982574 0.833476 0.003040 0.546860 0.236320 -3.973449 -3.496768 -8.667850 15.824989 -9.196776 24.269808 -6.450081 -6.668260 4.015678 2.264813 -7.279181 -11.110406 -17.573932 13.976665 39.572161 -10.235710 8.440840 -10.379970 -24.932218 -11.454344 4.733595 -27.305438 3.066074 -4.315239 -25.279657 -25.469777 2.723109 -3.745957 2.683540 0.917870 0.299410 -0.114610 0.323060 20.504885 14.394278 7.087441 45.258744 6.806934 -7.328057 83.641826 71.461252 47.922132 2.333087 -0.854370 -0.483160 0.519140 0.152380 -0.325570 
0.139120 16.406190 -2.187920 0.318329 -18.348596 -10.773514 -15.187292 12.843960 3.009121 7.872982 -2.356430 -10.836805 -14.503746 19.174713 46.164227 0.606253 11.131192 1.064186 0.285650 -0.171780 0.096920 18.514552 -8.819966 4.357432 -1.775686 13.889639 -36.987874 -6.930698 -8.717390 79.098043 -2.238361 -11.955249 0.869043 -0.017100 0.570870 0.231950 -3.916281 -3.442953 -8.570059 15.135089 -8.257468 22.688778 -6.181535 -6.260475 4.936461 2.378661 -6.828456 -11.456196 -16.883658 14.164848 41.665133 -11.020000 8.970440 -9.195750 -24.947013 -12.066899 5.387132 -28.410930 2.735382 -3.087839 -18.899975 -19.754675 0.819464 -3.796570 2.545850 0.926730 0.321870 -0.125810 0.323470 20.299299 15.168591 7.033287 47.726935 10.030376 -5.547626 85.198557 75.258742 51.675655 2.595420 -0.335929 -0.506890 0.539260 0.164430 -0.334790 
0.104040 16.456590 -2.147150 0.776668 -18.409432 -10.341583 -15.159966 12.945332 3.019277 7.246578 -1.923140 -11.217795 -13.870340 18.925731 46.032393 0.600040 11.058910 1.114721 0.206790 -0.244670 0.016080 18.503871 -9.114944 4.083285 -1.921888 13.228502 -33.311838 -6.217500 -8.668578 77.119925 -2.128751 -11.701316 0.963303 -0.051440 0.665770 0.242000 -3.918021 -3.244980 -8.399701 14.716728 -7.215107 19.892110 -6.081149 -5.811233 6.208614 2.367778 -6.508745 -11.635740 -15.966470 14.521448 42.191250 -10.917850 9.618000 -6.540540 -24.033937 -12.133057 5.991554 -29.995207 2.528322 -2.010290 -13.853023 -15.650095 -0.145507 -3.920778 2.457240 0.872460 0.397960 -0.181950 0.328670 19.362237 15.508942 6.784139 50.533129 13.542201 -3.603212 92.345120 78.323977 60.353861 3.073355 0.882729 -0.525660 0.558370 0.213990 -0.308790 
0.060060 16.514830 -2.106460 1.230743 -18.302295 -9.861297 -15.145182 13.010846 3.065188 6.859221 -1.672863 -11.824497 -13.649492 18.893352 45.948002 0.600674 11.030309 1.151237 0.182230 -0.258250 -0.003660 18.481758 -9.445107 3.737376 -2.294421 12.140712 -29.355007 -4.712444 -8.942709 73.319193 -1.950860 -11.196039 1.115671 -0.039260 0.727270 0.225700 -3.885454 -2.979733 -8.185618 13.863246 -5.989478 17.228632 -5.479819 -5.216822 7.485176 2.125314 -6.303880 -11.281638 -14.960853 14.436546 41.534569 -10.656610 9.971000 -4.866180 -22.797845 -11.269665 6.064374 -31.255472 2.029208 -1.233659 -10.423631 -13.213819 -0.529418 -4.011063 2.409808 0.811960 0.453090 -0.232370 0.341880 18.590109 15.051051 6.133941 52.250508 16.922829 -2.648137 99.074089 79.164227 69.619023 3.246241 2.136775 -0.548900 0.581370 0.212950 -0.295000 
